<svg width="20" height="21" viewBox="0 0 20 21" fill="none" xmlns="http://www.w3.org/2000/svg">
<path d="M6.2918 18.61C13.8371 18.61 17.9652 12.3572 17.9652 6.93654C17.9652 6.76075 17.9613 6.58107 17.9535 6.40529C18.7566 5.82454 19.4496 5.1052 20 4.28107C19.2521 4.61382 18.458 4.83114 17.6449 4.9256C18.5011 4.41241 19.1421 3.60621 19.4492 2.65646C18.6438 3.13378 17.763 3.4705 16.8445 3.65216C16.2257 2.99462 15.4075 2.55925 14.5164 2.41336C13.6253 2.26747 12.711 2.41919 11.9148 2.84507C11.1186 3.27094 10.4848 3.94724 10.1115 4.76941C9.73825 5.59158 9.64619 6.51383 9.84961 7.39357C8.21874 7.31173 6.62328 6.88807 5.16665 6.15007C3.71002 5.41206 2.42474 4.37618 1.39414 3.10958C0.870333 4.01269 0.710047 5.08136 0.945859 6.09839C1.18167 7.11543 1.79589 8.00452 2.66367 8.58497C2.01219 8.56429 1.37498 8.38889 0.804688 8.07325V8.12404C0.804104 9.07178 1.13175 9.99047 1.73192 10.724C2.3321 11.4574 3.16777 11.9605 4.09687 12.1475C3.49338 12.3126 2.85999 12.3366 2.2457 12.2178C2.50788 13.0328 3.01798 13.7457 3.70481 14.2569C4.39164 14.7681 5.22093 15.0521 6.07695 15.0693C4.62369 16.2109 2.82848 16.8301 0.980469 16.8272C0.652739 16.8267 0.325333 16.8066 0 16.767C1.87738 17.9714 4.06128 18.6111 6.2918 18.61Z" fill="#A3A3A3"/>
</svg>
