<svg width="20" height="21" viewBox="0 0 20 21" fill="none" xmlns="http://www.w3.org/2000/svg">
<g clip-path="url(#clip0_2647_86036)">
<path d="M20 10.4844C20 4.96152 15.5229 0.484375 10 0.484375C4.47715 0.484375 0 4.96152 0 10.4844C0 15.4756 3.65684 19.6127 8.4375 20.3629V13.375H5.89844V10.4844H8.4375V8.28125C8.4375 5.775 9.93047 4.39062 12.2146 4.39062C13.3084 4.39062 14.4531 4.58594 14.4531 4.58594V7.04688H13.1922C11.95 7.04688 11.5625 7.81777 11.5625 8.60938V10.4844H14.3359L13.8926 13.375H11.5625V20.3629C16.3432 19.6127 20 15.4756 20 10.4844Z" fill="#A3A3A3"/>
</g>
<defs>
<clipPath id="clip0_2647_86036">
<rect width="20" height="20" fill="white" transform="translate(0 0.484375)"/>
</clipPath>
</defs>
</svg>
