<svg width="20" height="21" viewBox="0 0 20 21" fill="none" xmlns="http://www.w3.org/2000/svg">
<g clip-path="url(#clip0_2647_86043)">
<path d="M10 2.28516C12.6719 2.28516 12.9883 2.29687 14.0391 2.34375C15.0156 2.38672 15.543 2.55078 15.8945 2.6875C16.3594 2.86719 16.6953 3.08594 17.043 3.43359C17.3945 3.78516 17.6094 4.11719 17.7891 4.58203C17.9258 4.93359 18.0898 5.46484 18.1328 6.4375C18.1797 7.49219 18.1914 7.80859 18.1914 10.4766C18.1914 13.1484 18.1797 13.4648 18.1328 14.5156C18.0898 15.4922 17.9258 16.0195 17.7891 16.3711C17.6094 16.8359 17.3906 17.1719 17.043 17.5195C16.6914 17.8711 16.3594 18.0859 15.8945 18.2656C15.543 18.4023 15.0117 18.5664 14.0391 18.6094C12.9844 18.6562 12.668 18.668 10 18.668C7.32812 18.668 7.01172 18.6562 5.96094 18.6094C4.98438 18.5664 4.45703 18.4023 4.10547 18.2656C3.64062 18.0859 3.30469 17.8672 2.95703 17.5195C2.60547 17.168 2.39062 16.8359 2.21094 16.3711C2.07422 16.0195 1.91016 15.4883 1.86719 14.5156C1.82031 13.4609 1.80859 13.1445 1.80859 10.4766C1.80859 7.80469 1.82031 7.48828 1.86719 6.4375C1.91016 5.46094 2.07422 4.93359 2.21094 4.58203C2.39062 4.11719 2.60937 3.78125 2.95703 3.43359C3.30859 3.08203 3.64062 2.86719 4.10547 2.6875C4.45703 2.55078 4.98828 2.38672 5.96094 2.34375C7.01172 2.29687 7.32812 2.28516 10 2.28516ZM10 0.484375C7.28516 0.484375 6.94531 0.496094 5.87891 0.542969C4.81641 0.589844 4.08594 0.761719 3.45312 1.00781C2.79297 1.26562 2.23438 1.60547 1.67969 2.16406C1.12109 2.71875 0.78125 3.27734 0.523437 3.93359C0.277344 4.57031 0.105469 5.29687 0.0585938 6.35937C0.0117188 7.42969 0 7.76953 0 10.4844C0 13.1992 0.0117188 13.5391 0.0585938 14.6055C0.105469 15.668 0.277344 16.3984 0.523437 17.0312C0.78125 17.6914 1.12109 18.25 1.67969 18.8047C2.23438 19.3594 2.79297 19.7031 3.44922 19.957C4.08594 20.2031 4.8125 20.375 5.875 20.4219C6.94141 20.4687 7.28125 20.4805 9.99609 20.4805C12.7109 20.4805 13.0508 20.4687 14.1172 20.4219C15.1797 20.375 15.9102 20.2031 16.543 19.957C17.1992 19.7031 17.7578 19.3594 18.3125 18.8047C18.8672 18.25 19.2109 17.6914 19.4648 17.0352C19.7109 16.3984 19.8828 15.6719 19.9297 14.6094C19.9766 13.543 19.9883 13.2031 19.9883 10.4883C19.9883 7.77344 19.9766 7.43359 19.9297 6.36719C19.8828 5.30469 19.7109 4.57422 19.4648 3.94141C19.2187 3.27734 18.8789 2.71875 18.3203 2.16406C17.7656 1.60937 17.207 1.26562 16.5508 1.01172C15.9141 0.765625 15.1875 0.59375 14.125 0.546875C13.0547 0.496094 12.7148 0.484375 10 0.484375Z" fill="#A3A3A3"/>
<path d="M10 5.34766C7.16406 5.34766 4.86328 7.64844 4.86328 10.4844C4.86328 13.3203 7.16406 15.6211 10 15.6211C12.8359 15.6211 15.1367 13.3203 15.1367 10.4844C15.1367 7.64844 12.8359 5.34766 10 5.34766ZM10 13.8164C8.16016 13.8164 6.66797 12.3242 6.66797 10.4844C6.66797 8.64453 8.16016 7.15234 10 7.15234C11.8398 7.15234 13.332 8.64453 13.332 10.4844C13.332 12.3242 11.8398 13.8164 10 13.8164Z" fill="#A3A3A3"/>
<path d="M16.5391 5.14404C16.5391 5.80811 16 6.34326 15.3398 6.34326C14.6758 6.34326 14.1406 5.8042 14.1406 5.14404C14.1406 4.47998 14.6797 3.94482 15.3398 3.94482C16 3.94482 16.5391 4.48389 16.5391 5.14404Z" fill="#A3A3A3"/>
</g>
<defs>
<clipPath id="clip0_2647_86043">
<rect width="20" height="20" fill="white" transform="translate(0 0.484375)"/>
</clipPath>
</defs>
</svg>
