<svg width="20" height="21" viewBox="0 0 20 21" fill="none" xmlns="http://www.w3.org/2000/svg">
<path d="M18.5195 0.484375H1.47656C0.660156 0.484375 0 1.12891 0 1.92578V19.0391C0 19.8359 0.660156 20.4844 1.47656 20.4844H18.5195C19.3359 20.4844 20 19.8359 20 19.043V1.92578C20 1.12891 19.3359 0.484375 18.5195 0.484375ZM5.93359 17.5273H2.96484V7.98047H5.93359V17.5273ZM4.44922 6.67969C3.49609 6.67969 2.72656 5.91016 2.72656 4.96094C2.72656 4.01172 3.49609 3.24219 4.44922 3.24219C5.39844 3.24219 6.16797 4.01172 6.16797 4.96094C6.16797 5.90625 5.39844 6.67969 4.44922 6.67969ZM17.043 17.5273H14.0781V12.8867C14.0781 11.7812 14.0586 10.3555 12.5352 10.3555C10.9922 10.3555 10.7578 11.5625 10.7578 12.8086V17.5273H7.79688V7.98047H10.6406V9.28516H10.6797C11.0742 8.53516 12.043 7.74219 13.4844 7.74219C16.4883 7.74219 17.043 9.71875 17.043 12.2891V17.5273Z" fill="#A3A3A3"/>
</svg>
